<svg width="375" height="415" viewBox="0 0 375 415" fill="none" xmlns="http://www.w3.org/2000/svg">
<path d="M24.5464 30.9289C59.9689 21.8461 83.9979 14.5479 118.907 1.77461C130.678 -2.53244 149.687 2.01732 154.991 4.70665C164.037 9.29367 175.887 20.7775 181.943 30.8279L187.512 40.0671L192.957 31.0576C199.38 20.4322 209.443 10.4518 218.72 5.5097C223.78 2.81385 228.586 1.78112 238.743 1.20612C251.301 0.49754 253.131 0.807034 269.036 6.32416C295.996 15.6758 320.614 23.1492 347.378 30.1047C361.064 33.6622 374.849 37.5785 375 37.8554V415H0V37.0234C0.161267 36.7286 12.5859 33.9961 24.5464 30.9289Z" fill="#000F1F"/>
<path d="M24.5464 38.3327C59.9689 29.4249 83.9979 22.2675 118.907 9.7404C130.678 5.51638 149.687 9.97843 154.991 12.6159C164.037 17.1145 175.887 28.377 181.943 38.2336L187.512 47.2947L192.957 38.4589C199.38 28.0383 209.443 18.2503 218.72 13.4035C223.78 10.7596 228.586 9.74679 238.743 9.18287C251.301 8.48795 253.131 8.79148 269.036 14.2023C295.996 23.3736 320.614 30.703 347.378 37.5243C361.064 41.0133 374.849 44.8541 375 45.1257V415H0V44.3097C0.161267 44.0206 12.5859 41.3408 24.5464 38.3327Z" fill="#001933"/>
</svg>
